<svg width="64" height="46" viewBox="0 0 64 46" fill="none" xmlns="http://www.w3.org/2000/svg">
<path d="M30.0441 32.8722V43.2868C30.0441 45.2146 27.8959 46.3939 26.2318 45.3779L3.38136 34.1513C3.03563 33.7476 -1.97054 27.5832 12.1076 22.5529L28.864 30.7856C29.6015 31.2302 30.0441 32.0194 30.0441 32.8722Z" fill="url(#paint0_linear_7_17251)"/>
<path d="M30.0809 2.5583V12.9774C30.0809 13.8256 29.6337 14.6149 28.8962 15.064L12.1075 22.5529C-1.9706 27.5832 3.03557 33.7476 3.3813 34.1513C3.00791 33.9654 2.62992 33.7839 2.25653 33.5979C1.39451 33.1716 0.491 32.9039 -0.03451 32.0466C-0.306484 31.6067 -0.495483 31.0578 -0.495483 30.5407V15.2137C-0.495483 14.3654 -0.0483392 13.5762 0.684608 13.1271L26.264 0.47175C27.9281 -0.544307 30.0809 0.635045 30.0809 2.5583Z" fill="url(#paint1_linear_7_17251)"/>
<path d="M33.0773 12.8776V2.46303C33.0773 0.53524 35.2254 -0.644112 36.8895 0.371946L59.74 11.5985C60.0857 12.0022 65.0919 18.1666 51.0137 23.1969L34.2574 14.9642C33.5198 14.5196 33.0773 13.7304 33.0773 12.8776Z" fill="url(#paint2_linear_7_17251)"/>
<path d="M33.0404 43.1915V32.7724C33.0404 31.9242 33.4875 31.1349 34.2251 30.6858L51.0137 23.197C65.0919 18.1666 60.0857 12.0022 59.74 11.5985C60.1133 11.7845 60.4913 11.9659 60.8647 12.1519C61.7267 12.5783 62.6303 12.8459 63.1558 13.7032C63.4277 14.1432 63.6167 14.692 63.6167 15.2091V30.5362C63.6167 31.3844 63.1696 32.1736 62.4366 32.6227L36.8526 45.2781C35.1885 46.2941 33.0358 45.1148 33.0358 43.1915H33.0404Z" fill="url(#paint3_linear_7_17251)"/>
<defs>
<linearGradient id="paint0_linear_7_17251" x1="1.23784" y1="34.4053" x2="29.3202" y2="34.0072" gradientUnits="userSpaceOnUse">
<stop stop-color="#2A1672"/>
<stop offset="0.47" stop-color="#B33794"/>
<stop offset="1" stop-color="#F95103"/>
</linearGradient>
<linearGradient id="paint1_linear_7_17251" x1="31.2794" y1="15.6083" x2="-0.577928" y2="18.7508" gradientUnits="userSpaceOnUse">
<stop stop-color="#2A1672"/>
<stop offset="0.47" stop-color="#B33794"/>
<stop offset="1" stop-color="#F95103"/>
</linearGradient>
<linearGradient id="paint2_linear_7_17251" x1="61.8789" y1="11.3445" x2="33.7966" y2="11.7427" gradientUnits="userSpaceOnUse">
<stop stop-color="#2A1672"/>
<stop offset="0.47" stop-color="#B33794"/>
<stop offset="1" stop-color="#F95103"/>
</linearGradient>
<linearGradient id="paint3_linear_7_17251" x1="31.8372" y1="30.1415" x2="63.6946" y2="26.9991" gradientUnits="userSpaceOnUse">
<stop stop-color="#2A1672"/>
<stop offset="0.47" stop-color="#B33794"/>
<stop offset="1" stop-color="#F95103"/>
</linearGradient>
</defs>
</svg>
