<svg width="252" height="50" viewBox="0 0 252 50" fill="none" xmlns="http://www.w3.org/2000/svg">
<g clip-path="url(#clip0_7_17228)">
<path d="M250.5 18.8288V17.2548C250.5 15.8305 250.288 14.5378 249.868 13.3856C249.444 12.229 248.845 11.2492 248.071 10.4418C247.296 9.62986 246.356 9.00843 245.24 8.5639C244.129 8.12392 242.871 7.90619 241.469 7.90619C240.068 7.90619 238.805 8.12392 237.68 8.5639C236.555 9.00843 235.601 9.648 234.813 10.4917C234.029 11.3399 233.421 12.3605 233.001 13.5625C232.577 14.7646 232.365 16.1163 232.365 17.6132C232.365 20.5661 233.177 22.8976 234.795 24.6076C236.417 26.3222 238.796 27.1795 241.94 27.1795C245.618 27.1795 250.145 25.6237 250.468 21.4143C250.481 21.2646 250.491 21.1195 250.495 20.9698V20.9516H245.222C245.222 20.9516 245.116 21.4642 245.107 21.505C245.028 21.7545 244.918 21.9949 244.765 22.2126C244.171 23.0473 243.064 23.1108 242.124 23.1108C240.672 23.1108 239.57 22.7479 238.823 22.0221C238.072 21.2964 237.699 20.3393 237.699 19.1509V18.8288H250.5ZM237.699 15.581C237.699 14.3881 238.04 13.4446 238.731 12.7415C239.418 12.0385 240.345 11.6892 241.506 11.6892C242.668 11.6892 243.581 12.0339 244.245 12.7234C244.908 13.4129 245.24 14.3654 245.24 15.581V15.8668H237.699V15.581Z" fill="black"/>
<path d="M80.4838 27.1795C77.1002 27.1795 74.5879 26.0546 72.9561 23.8048C71.3242 21.5549 70.5083 18.3843 70.5083 14.2928C70.5083 10.2014 71.3242 7.03076 72.9561 4.78092C74.5879 2.53108 77.0956 1.40616 80.4838 1.40616C81.7883 1.40616 82.9454 1.57853 83.9457 1.92326C84.9506 2.26799 85.8126 2.74881 86.541 3.37023C87.2647 3.98713 87.864 4.7401 88.3388 5.62007C88.8089 6.50005 89.1777 7.48889 89.4451 8.58206L84.3652 9.79317C84.2223 9.19895 84.0517 8.6501 83.8581 8.15114C83.6645 7.65219 83.4156 7.22127 83.1159 6.86747C82.8117 6.50912 82.4383 6.23243 81.9911 6.02831C81.544 5.82873 81.0047 5.7244 80.3777 5.7244C78.9026 5.7244 77.8562 6.2914 77.2385 7.42085C76.6208 8.55031 76.312 10.1152 76.312 12.1156V16.4701C76.312 18.4705 76.6208 20.0354 77.2385 21.1648C77.8562 22.2943 78.9026 22.8613 80.3777 22.8613C81.6362 22.8613 82.5489 22.4803 83.1159 21.7182C83.6829 20.9562 84.1024 19.981 84.3698 18.7925L89.4497 20.0082C89.1823 21.1013 88.8136 22.0902 88.3434 22.9702C87.8732 23.8501 87.2739 24.6076 86.5456 25.2381C85.8218 25.8686 84.9552 26.3495 83.9503 26.6851C82.9454 27.0162 81.7929 27.1841 80.4884 27.1841L80.4838 27.1795Z" fill="black"/>
<path d="M92.234 0.34021H97.6043V11.6892H97.821C98.0376 11.1676 98.305 10.6777 98.6185 10.2241C98.9319 9.77049 99.3145 9.37133 99.7617 9.02659C100.209 8.68186 100.73 8.4097 101.32 8.20558C101.91 8.00146 102.583 7.90167 103.334 7.90167C104.229 7.90167 105.049 8.05136 105.8 8.3462C106.552 8.64557 107.193 9.0901 107.723 9.68431C108.253 10.2785 108.672 11.0043 108.977 11.8616C109.281 12.7189 109.428 13.7077 109.428 14.8236V26.7441H104.058V15.5357C104.058 13.1543 103.007 11.9659 100.9 11.9659C100.49 11.9659 100.084 12.0203 99.6833 12.1247C99.2823 12.2335 98.9273 12.3968 98.6138 12.6236C98.3004 12.8504 98.0515 13.1316 97.8717 13.4628C97.6919 13.7984 97.5997 14.1885 97.5997 14.6421V26.7396H92.2294V0.34021H92.234Z" fill="black"/>
<path d="M128.397 26.7531C127.286 26.7531 126.388 26.4719 125.715 25.914C125.037 25.3561 124.636 24.5532 124.516 23.5054H124.336C123.995 24.721 123.327 25.6373 122.322 26.2542C121.317 26.8711 120.091 27.1795 118.639 27.1795C116.827 27.1795 115.37 26.6987 114.269 25.7326C113.167 24.7709 112.618 23.4192 112.618 21.6819C112.618 19.7541 113.333 18.3253 114.757 17.4C116.182 16.4701 118.274 16.0074 121.031 16.0074H124.041V15.0776C124.041 13.9844 123.783 13.1588 123.262 12.5964C122.741 12.0385 121.865 11.7572 120.635 11.7572C119.496 11.7572 118.579 11.9704 117.878 12.4013C117.177 12.8277 116.573 13.3902 116.066 14.0796L113.13 11.5123C113.757 10.4645 114.743 9.60264 116.085 8.92225C117.426 8.24639 119.15 7.90619 121.252 7.90619C123.815 7.90619 125.816 8.48226 127.254 9.63893C128.692 10.7956 129.412 12.5374 129.412 14.8689V22.9339H131.481V26.7531H128.397ZM120.671 23.7186C121.616 23.7186 122.414 23.4918 123.064 23.0427C123.719 22.5891 124.041 21.9359 124.041 21.0786V18.8651H121.174C118.975 18.8651 117.873 19.5908 117.873 21.0424V21.7545C117.873 22.3986 118.127 22.884 118.634 23.2196C119.141 23.5553 119.819 23.7186 120.667 23.7186H120.671Z" fill="black"/>
<path d="M134.077 22.6118H137.257V12.4739H134.077V8.33258H142.628V22.6118H145.836V26.7532H134.077V22.6118Z" fill="black"/>
<path d="M148.809 26.7532V8.33259H154.18V11.6892H154.396C154.613 11.1676 154.88 10.6777 155.194 10.2241C155.507 9.77049 155.89 9.37133 156.337 9.02659C156.784 8.68186 157.305 8.4097 157.895 8.20558C158.485 8.00146 159.158 7.90167 159.91 7.90167C160.804 7.90167 161.624 8.05136 162.376 8.3462C163.127 8.64557 163.768 9.0901 164.298 9.68431C164.828 10.2785 165.248 11.0043 165.552 11.8616C165.856 12.7189 166.004 13.7077 166.004 14.8236V26.7441H160.633V15.5357C160.633 13.1543 159.582 11.9659 157.476 11.9659C157.065 11.9659 156.66 12.0203 156.259 12.1247C155.858 12.2335 155.503 12.3968 155.189 12.6236C154.876 12.8504 154.627 13.1316 154.447 13.4628C154.267 13.7984 154.175 14.1885 154.175 14.6421V26.7396H148.805L148.809 26.7532Z" fill="black"/>
<path d="M179.446 27.1795C176.062 27.1795 173.55 26.0546 171.918 23.8048C170.286 21.5549 169.47 18.3843 169.47 14.2928C169.47 10.2014 170.286 7.03076 171.918 4.78092C173.55 2.53108 176.058 1.40616 179.446 1.40616C180.75 1.40616 181.907 1.57853 182.908 1.92326C183.913 2.26799 184.775 2.74881 185.503 3.37023C186.227 3.98713 186.826 4.7401 187.296 5.62007C187.766 6.50005 188.135 7.48889 188.402 8.58206L183.322 9.79317C183.18 9.19895 183.009 8.6501 182.815 8.15114C182.622 7.65219 182.373 7.22127 182.073 6.86747C181.769 6.50912 181.396 6.23243 180.948 6.02831C180.501 5.82873 179.962 5.7244 179.335 5.7244C177.86 5.7244 176.814 6.2914 176.196 7.42085C175.578 8.55031 175.269 10.1152 175.269 12.1156V16.4701C175.269 18.4705 175.578 20.0354 176.196 21.1648C176.814 22.2943 177.86 22.8613 179.335 22.8613C180.594 22.8613 181.506 22.4803 182.073 21.7182C182.64 20.9562 183.06 19.981 183.322 18.7925L188.402 20.0082C188.135 21.1013 187.766 22.0902 187.296 22.9702C186.826 23.8501 186.227 24.6076 185.503 25.2381C184.779 25.8686 183.913 26.3495 182.908 26.6851C181.903 27.0162 180.75 27.1841 179.446 27.1841V27.1795Z" fill="black"/>
<path d="M199.724 27.1795C198.272 27.1795 196.967 26.9573 195.805 26.5173C194.644 26.0773 193.657 25.4423 192.851 24.6077C192.039 23.773 191.417 22.766 190.984 21.5731C190.55 20.3847 190.329 19.0375 190.329 17.5406C190.329 16.0437 190.546 14.6966 190.984 13.5081C191.417 12.3197 192.039 11.3082 192.851 10.4736C193.662 9.63895 194.644 9.00391 195.805 8.56392C196.967 8.12393 198.272 7.90167 199.724 7.90167C201.176 7.90167 202.48 8.12393 203.642 8.56392C204.804 9.00391 205.786 9.63895 206.597 10.4736C207.408 11.3082 208.03 12.3197 208.464 13.5081C208.897 14.6966 209.118 16.0437 209.118 17.5406C209.118 19.0375 208.902 20.3847 208.464 21.5731C208.03 22.7615 207.404 23.773 206.597 24.6077C205.786 25.4423 204.799 26.0773 203.642 26.5173C202.48 26.9573 201.176 27.1795 199.724 27.1795ZM199.724 23.2514C200.931 23.2514 201.876 22.884 202.554 22.1446C203.232 21.4098 203.568 20.362 203.568 19.0057V16.08C203.568 14.7238 203.227 13.676 202.554 12.9411C201.876 12.2018 200.931 11.8344 199.724 11.8344C198.516 11.8344 197.571 12.2018 196.893 12.9411C196.216 13.6805 195.879 14.7238 195.879 16.08V19.0057C195.879 20.362 196.216 21.4098 196.893 22.1446C197.571 22.884 198.511 23.2514 199.724 23.2514Z" fill="black"/>
<path d="M223.953 23.3648H223.699C223.215 24.4943 222.542 25.4105 221.685 26.1181C220.827 26.8257 219.647 27.1795 218.149 27.1795C217.107 27.1795 216.162 26.989 215.3 26.608C214.443 26.227 213.705 25.6464 213.087 24.8617C212.47 24.0769 211.986 23.079 211.635 21.8634C211.285 20.6477 211.11 19.2098 211.11 17.5451C211.11 15.8804 211.285 14.438 211.635 13.2269C211.986 12.0158 212.47 11.0133 213.087 10.2286C213.705 9.4439 214.443 8.85876 215.3 8.47774C216.158 8.09672 217.107 7.90621 218.149 7.90621C218.9 7.90621 219.564 8.00146 220.145 8.19197C220.726 8.38249 221.237 8.65011 221.685 8.98577C222.132 9.32143 222.519 9.72513 222.846 10.1923C223.174 10.6595 223.455 11.1721 223.699 11.721H223.953V0.34021H229.323V26.7532H223.953V23.3648ZM220.468 23.0382C221.413 23.0382 222.229 22.8114 222.915 22.3623C223.602 21.9133 223.948 21.2057 223.948 20.235V14.8462C223.948 13.8755 223.602 13.1679 222.915 12.7189C222.224 12.2698 221.408 12.0475 220.468 12.0475C219.26 12.0475 218.329 12.4104 217.674 13.1271C217.02 13.8483 216.697 14.8462 216.697 16.1254V18.9604C216.697 20.2395 217.024 21.2374 217.674 21.9586C218.329 22.6799 219.26 23.0382 220.468 23.0382Z" fill="black"/>
<path d="M139.452 6.32767C141.201 6.32767 142.618 4.93249 142.618 3.21146C142.618 1.49042 141.201 0.0952454 139.452 0.0952454C137.703 0.0952454 136.285 1.49042 136.285 3.21146C136.285 4.93249 137.703 6.32767 139.452 6.32767Z" fill="black"/>
<path d="M75.4592 46.2805C73.7858 46.2805 72.5412 45.6999 71.7299 44.5342C70.9186 43.3684 70.5129 41.7173 70.5129 39.5718C70.5129 37.4263 70.9186 35.7752 71.7299 34.6094C72.5412 33.4437 73.7858 32.8631 75.4592 32.8631C76.0999 32.8631 76.6577 32.9447 77.1325 33.1126C77.6027 33.2804 78.013 33.5027 78.3495 33.793C78.6906 34.0833 78.9764 34.4189 79.2115 34.809C79.4466 35.1991 79.6356 35.6164 79.7877 36.061L77.8793 36.6915C77.7779 36.3921 77.6672 36.1154 77.5382 35.8568C77.4137 35.5983 77.257 35.3715 77.0634 35.1855C76.8744 34.9995 76.6531 34.8499 76.395 34.741C76.1368 34.6276 75.8187 34.5732 75.4407 34.5732C74.5096 34.5732 73.8273 34.9224 73.3986 35.6255C72.9699 36.3286 72.7579 37.2766 72.7579 38.4696V40.6695C72.7579 41.8625 72.9699 42.8105 73.3986 43.5136C73.8273 44.2166 74.505 44.5659 75.4407 44.5659C75.8187 44.5659 76.1368 44.5115 76.395 44.3981C76.6531 44.2847 76.8744 44.1395 77.0634 43.9535C77.2524 43.7676 77.4091 43.5453 77.5382 43.2822C77.6626 43.0237 77.7779 42.7424 77.8793 42.4476L79.7877 43.0781C79.6356 43.5226 79.4466 43.9399 79.2115 44.33C78.9764 44.7201 78.6906 45.0558 78.3495 45.3461C78.0084 45.6364 77.6027 45.8632 77.1325 46.0265C76.6623 46.1898 76.1045 46.276 75.4592 46.276V46.2805Z" fill="#7434B1"/>
<path d="M85.2964 46.2805C84.5772 46.2805 83.9319 46.1626 83.3603 45.9267C82.7887 45.6908 82.3 45.3552 81.9036 44.9243C81.5071 44.4888 81.2029 43.9626 80.9863 43.3457C80.7742 42.7243 80.6636 42.0303 80.6636 41.2637C80.6636 40.4972 80.7696 39.8031 80.9863 39.1817C81.1983 38.5603 81.5071 38.0341 81.9036 37.6032C82.3 37.1677 82.784 36.8366 83.3603 36.6008C83.9319 36.3649 84.5772 36.2469 85.2964 36.2469C86.0155 36.2469 86.6608 36.3649 87.2324 36.6008C87.8041 36.8366 88.2927 37.1723 88.6891 37.6032C89.0856 38.0387 89.3898 38.5648 89.6065 39.1817C89.8185 39.8031 89.9291 40.4972 89.9291 41.2637C89.9291 42.0303 89.8231 42.7243 89.6065 43.3457C89.3944 43.9672 89.0856 44.4933 88.6891 44.9243C88.2927 45.3597 87.8087 45.6908 87.2324 45.9267C86.6562 46.1626 86.0155 46.2805 85.2964 46.2805ZM85.2964 44.6839C86.0523 44.6839 86.6516 44.4571 87.0988 44.0035C87.5459 43.5499 87.7672 42.8785 87.7672 41.9849V40.5334C87.7672 39.6399 87.5413 38.9685 87.0988 38.5149C86.6516 38.0613 86.0523 37.8345 85.2964 37.8345C84.5404 37.8345 83.9411 38.0613 83.494 38.5149C83.0468 38.9685 82.8255 39.6399 82.8255 40.5334V41.9849C82.8255 42.8785 83.0468 43.5499 83.494 44.0035C83.9411 44.4571 84.5404 44.6839 85.2964 44.6839Z" fill="#7434B1"/>
<path d="M91.6624 46.0582V36.4647H93.7229V38.1021H93.8197C93.9211 37.8527 94.0502 37.6168 94.2069 37.3855C94.3637 37.1541 94.5573 36.9591 94.7831 36.7913C95.009 36.6234 95.2764 36.4919 95.576 36.3921C95.8803 36.2923 96.2306 36.2424 96.6363 36.2424C97.6181 36.2424 98.411 36.5599 99.0149 37.1904C99.6188 37.8209 99.923 38.719 99.923 39.8848V46.0582H97.8625V40.1842C97.8625 38.6601 97.1894 37.898 95.8388 37.898C95.576 37.898 95.3179 37.9343 95.0643 38.0024C94.8108 38.0704 94.5849 38.1747 94.3821 38.3108C94.1793 38.4469 94.0179 38.6192 93.9027 38.8324C93.7828 39.0456 93.7229 39.286 93.7229 39.5582V46.0628H91.6624V46.0582Z" fill="#7434B1"/>
<path d="M106.211 46.2805C105.15 46.2805 104.242 46.1127 103.482 45.777C102.721 45.4414 102.108 44.9968 101.638 44.4389L102.905 43.3231C103.334 43.7812 103.814 44.1305 104.348 44.3754C104.883 44.6203 105.515 44.7383 106.248 44.7383C106.916 44.7383 107.455 44.6249 107.861 44.4026C108.271 44.1804 108.474 43.8311 108.474 43.3639C108.474 43.1643 108.437 42.9965 108.359 42.8604C108.285 42.7243 108.174 42.6109 108.036 42.5247C107.898 42.4385 107.736 42.3705 107.557 42.3206C107.372 42.2707 107.183 42.2344 106.98 42.2072L105.432 41.9668C105.054 41.9169 104.671 41.8353 104.279 41.7264C103.887 41.6175 103.542 41.4588 103.233 41.2547C102.924 41.0505 102.67 40.7875 102.477 40.4654C102.283 40.1433 102.182 39.7351 102.182 39.2407C102.182 38.2609 102.564 37.517 103.325 37.009C104.086 36.501 105.091 36.2469 106.34 36.2469C107.248 36.2469 108.032 36.3785 108.691 36.6461C109.35 36.9137 109.903 37.2811 110.346 37.7529L109.193 38.9413C108.94 38.6555 108.585 38.3925 108.114 38.1521C107.644 37.9116 107.031 37.7892 106.261 37.7892C104.888 37.7892 104.201 38.2156 104.201 39.0729C104.201 39.4811 104.348 39.7623 104.643 39.9165C104.938 40.0708 105.289 40.1751 105.69 40.225L107.239 40.4654C107.63 40.5289 108.018 40.606 108.4 40.7058C108.783 40.8056 109.129 40.9553 109.437 41.1594C109.746 41.3635 109.995 41.6266 110.193 41.9487C110.387 42.2707 110.484 42.679 110.484 43.1734C110.484 44.1395 110.101 44.9016 109.341 45.4504C108.58 46.0038 107.529 46.276 106.197 46.276L106.211 46.2805Z" fill="#7434B1"/>
<path d="M118.657 44.4207H118.56C118.459 44.6702 118.33 44.9061 118.173 45.1374C118.016 45.3688 117.823 45.5638 117.597 45.7316C117.371 45.8995 117.104 46.031 116.804 46.1308C116.5 46.2306 116.149 46.2805 115.744 46.2805C114.762 46.2805 113.969 45.963 113.365 45.3325C112.761 44.702 112.457 43.8039 112.457 42.6381V36.4647H114.517V42.3387C114.517 43.8628 115.19 44.6249 116.541 44.6249C116.804 44.6249 117.062 44.5886 117.316 44.5205C117.569 44.4525 117.795 44.3482 117.998 44.2121C118.201 44.076 118.357 43.9036 118.477 43.6995C118.597 43.4954 118.657 43.2505 118.657 42.9647V36.4601H120.718V46.0537H118.657V44.4162V44.4207Z" fill="#7434B1"/>
<path d="M122.833 44.4026H124.29V33.9563H122.833V32.3006H126.351V44.4026H127.807V46.0582H122.833V44.4026Z" fill="#7434B1"/>
<path d="M133.689 46.0582C132.832 46.0582 132.205 45.8314 131.799 45.3824C131.398 44.9288 131.195 44.3482 131.195 43.6315V37.2494H129.08V35.5938H130.329C130.693 35.5938 130.951 35.5212 131.103 35.3806C131.255 35.24 131.329 34.9814 131.329 34.6095V32.2099H133.256V35.5938H136.082V37.2494H133.256V44.4026H136.082V46.0582H133.689Z" fill="#7434B1"/>
<path d="M138.903 44.4026H140.899V38.1203H138.903V36.4692H142.96V44.4026H144.748V46.0582H138.903V44.4026Z" fill="#7434B1"/>
<path d="M146.813 46.0582V36.4647H148.874V38.1021H148.971C149.072 37.8527 149.201 37.6168 149.358 37.3855C149.515 37.1541 149.708 36.9591 149.934 36.7913C150.16 36.6234 150.427 36.4919 150.727 36.3921C151.031 36.2923 151.381 36.2424 151.787 36.2424C152.769 36.2424 153.562 36.5599 154.166 37.1904C154.77 37.8209 155.074 38.719 155.074 39.8848V46.0582H153.013V40.1842C153.013 38.6601 152.34 37.898 150.99 37.898C150.727 37.898 150.469 37.9343 150.215 38.0024C149.962 38.0704 149.736 38.1747 149.533 38.3108C149.33 38.4469 149.169 38.6192 149.054 38.8324C148.934 39.0456 148.874 39.286 148.874 39.5582V46.0628H146.813V46.0582Z" fill="#7434B1"/>
<path d="M165.999 47.1015C165.999 48.0949 165.575 48.8252 164.731 49.2969C163.888 49.7686 162.602 50.0045 160.878 50.0045C160.034 50.0045 159.324 49.9501 158.752 49.8458C158.181 49.7414 157.715 49.5872 157.356 49.3922C156.996 49.1926 156.738 48.9522 156.581 48.6664C156.425 48.3806 156.346 48.0586 156.346 47.7002C156.346 47.1786 156.494 46.7749 156.789 46.4846C157.084 46.1943 157.503 45.9811 158.047 45.845V45.6591C157.72 45.5366 157.457 45.3597 157.264 45.1374C157.07 44.9152 156.973 44.6249 156.973 44.262C156.973 43.7902 157.134 43.4364 157.466 43.1915C157.794 42.9511 158.218 42.7651 158.734 42.6426V42.5474C158.144 42.2752 157.683 41.8897 157.356 41.3952C157.028 40.9008 156.862 40.3066 156.862 39.6126C156.862 39.1046 156.955 38.6419 157.144 38.2291C157.333 37.8164 157.6 37.4626 157.946 37.1677C158.291 36.8774 158.706 36.6506 159.19 36.4873C159.674 36.3286 160.218 36.2469 160.822 36.2469C161.504 36.2469 162.113 36.3512 162.652 36.5644V36.2469C162.652 35.875 162.758 35.5665 162.975 35.317C163.187 35.0676 163.514 34.9451 163.957 34.9451H165.732V36.5418H163.464V36.9863C163.892 37.2721 164.22 37.6349 164.445 38.0749C164.671 38.5149 164.787 39.0275 164.787 39.6081C164.787 40.1161 164.694 40.5788 164.505 40.9915C164.316 41.4089 164.049 41.7581 163.703 42.053C163.358 42.3433 162.943 42.5655 162.459 42.7243C161.975 42.8785 161.431 42.9556 160.822 42.9556C160.394 42.9556 159.992 42.9193 159.614 42.8422C159.389 42.9057 159.163 43.0101 158.932 43.1597C158.706 43.3094 158.591 43.5135 158.591 43.7721C158.591 44.0715 158.734 44.2574 159.024 44.33C159.315 44.4026 159.674 44.4434 160.103 44.4434H162.293C163.602 44.4434 164.547 44.6884 165.128 45.1782C165.709 45.6681 165.999 46.3077 165.999 47.1015ZM164.072 47.2194C164.072 46.8928 163.938 46.6343 163.676 46.4438C163.413 46.2487 162.934 46.1535 162.237 46.1535H158.854C158.374 46.3803 158.135 46.7386 158.135 47.2376C158.135 47.6005 158.287 47.9134 158.596 48.1765C158.905 48.4396 159.416 48.5712 160.135 48.5712H161.666C162.445 48.5712 163.04 48.4578 163.45 48.2264C163.86 47.9951 164.063 47.6594 164.063 47.224L164.072 47.2194ZM160.827 41.5585C161.495 41.5585 161.984 41.4043 162.302 41.0959C162.615 40.7874 162.772 40.3701 162.772 39.8485V39.345C162.772 38.8234 162.615 38.4106 162.302 38.0976C161.989 37.7892 161.495 37.6349 160.827 37.6349C160.158 37.6349 159.67 37.7892 159.352 38.0976C159.038 38.406 158.877 38.8234 158.877 39.345V39.8485C158.877 40.3701 159.034 40.7829 159.352 41.0959C159.665 41.4043 160.158 41.5585 160.827 41.5585Z" fill="#7434B1"/>
<path d="M141.572 34.8816C142.354 34.8816 142.987 34.2297 142.987 33.4256C142.987 32.6214 142.354 31.9695 141.572 31.9695C140.79 31.9695 140.157 32.6214 140.157 33.4256C140.157 34.2297 140.79 34.8816 141.572 34.8816Z" fill="#7434B1"/>
<path d="M30.0441 32.8722V43.2868C30.0441 45.2146 27.8959 46.3939 26.2318 45.3779L3.38136 34.1513C3.03563 33.7476 -1.97054 27.5832 12.1076 22.5529L28.864 30.7856C29.6015 31.2302 30.0441 32.0194 30.0441 32.8722Z" fill="url(#paint0_linear_7_17228)"/>
<path d="M30.0809 2.5583V12.9774C30.0809 13.8256 29.6337 14.6149 28.8962 15.064L12.1075 22.5529C-1.9706 27.5832 3.03557 33.7476 3.3813 34.1513C3.00791 33.9654 2.62992 33.7839 2.25653 33.5979C1.39451 33.1716 0.491 32.9039 -0.03451 32.0466C-0.306484 31.6067 -0.495483 31.0578 -0.495483 30.5407V15.2137C-0.495483 14.3654 -0.0483392 13.5762 0.684608 13.1271L26.264 0.47175C27.9281 -0.544307 30.0809 0.635045 30.0809 2.5583Z" fill="url(#paint1_linear_7_17228)"/>
<path d="M33.0773 12.8776V2.46303C33.0773 0.53524 35.2254 -0.644112 36.8895 0.371946L59.74 11.5985C60.0857 12.0022 65.0919 18.1666 51.0137 23.1969L34.2574 14.9642C33.5198 14.5196 33.0773 13.7304 33.0773 12.8776Z" fill="url(#paint2_linear_7_17228)"/>
<path d="M33.0404 43.1915V32.7724C33.0404 31.9242 33.4875 31.1349 34.2251 30.6858L51.0137 23.197C65.0919 18.1666 60.0857 12.0022 59.74 11.5985C60.1133 11.7845 60.4913 11.9659 60.8647 12.1519C61.7267 12.5783 62.6303 12.8459 63.1558 13.7032C63.4277 14.1432 63.6167 14.692 63.6167 15.2091V30.5362C63.6167 31.3844 63.1696 32.1736 62.4366 32.6227L36.8526 45.2781C35.1885 46.2941 33.0358 45.1148 33.0358 43.1915H33.0404Z" fill="url(#paint3_linear_7_17228)"/>
</g>
<defs>
<linearGradient id="paint0_linear_7_17228" x1="1.23784" y1="34.4053" x2="29.3202" y2="34.0072" gradientUnits="userSpaceOnUse">
<stop stop-color="#2A1672"/>
<stop offset="0.47" stop-color="#B33794"/>
<stop offset="1" stop-color="#F95103"/>
</linearGradient>
<linearGradient id="paint1_linear_7_17228" x1="31.2794" y1="15.6083" x2="-0.577928" y2="18.7508" gradientUnits="userSpaceOnUse">
<stop stop-color="#2A1672"/>
<stop offset="0.47" stop-color="#B33794"/>
<stop offset="1" stop-color="#F95103"/>
</linearGradient>
<linearGradient id="paint2_linear_7_17228" x1="61.8789" y1="11.3445" x2="33.7966" y2="11.7427" gradientUnits="userSpaceOnUse">
<stop stop-color="#2A1672"/>
<stop offset="0.47" stop-color="#B33794"/>
<stop offset="1" stop-color="#F95103"/>
</linearGradient>
<linearGradient id="paint3_linear_7_17228" x1="31.8372" y1="30.1415" x2="63.6946" y2="26.9991" gradientUnits="userSpaceOnUse">
<stop stop-color="#2A1672"/>
<stop offset="0.47" stop-color="#B33794"/>
<stop offset="1" stop-color="#F95103"/>
</linearGradient>
<clipPath id="clip0_7_17228">
<rect width="252" height="50" fill="white"/>
</clipPath>
</defs>
</svg>
